<?xml version="1.0" encoding="utf-8"?>
<!-- Generator: Adobe Illustrator 27.9.3, SVG Export Plug-In . SVG Version: 9.03 Build 53313)  -->
<svg version="1.1" baseProfile="basic" id="Layer_1"
	 xmlns="http://www.w3.org/2000/svg" xmlns:xlink="http://www.w3.org/1999/xlink" x="0px" y="0px" viewBox="0 0 283.465 283.465"
	 xml:space="preserve">
<g>
	<path d="M192.703,134.431c5.88-3.713,11.886-3.436,17.13-3.193c3.556,0.164,9.499,0.891,16.335,4.067l6.146-18.438
		c-4.013-1.764-9.507-3.675-16.226-4.632c-2.717-0.387-7.561-0.892-13.617-0.423c-4.656,0.36-10.104,0.782-16.51,3.611
		c-7.463,3.296-11.961,7.976-13.097,9.198c-5.881,6.329-8.186,13.142-9.134,16.833l-6.013,18.04l-10.657-31.97h-21.313
		l-10.657,31.97l-10.657-31.97H83.121v-10.657c0-5.886,4.771-10.657,10.657-10.657s10.657,4.771,10.657,10.657h21.313
		c0-17.657-14.313-31.97-31.97-31.97s-31.97,14.313-31.97,31.97v10.657H51.151v21.313h10.657v42.627h21.313v-42.627h7.104
		l14.209,42.627h21.313l10.657-31.97l10.657,31.97h0h21.313h0l15.231-45.695C184.564,143.324,187.058,137.996,192.703,134.431z"/>
	<path d="M219.048,146.686c-5.535-2.752-11.268-1.016-13.972-4.911c-0.659-0.949-0.922-1.905-1.041-2.505
		c-0.489-0.051-6.624-0.585-10.507,4.171c-0.208,0.255-3.829,4.837-2.22,10.088c0.164,0.537,0.844,2.595,2.706,4.323
		c2.69,2.495,6.778,3.389,9.153,3.755c1.343,0.207,2.407,0.232,3.579,1.056c1.337,0.94,2.675,2.819,2.466,4.968
		c-0.242,2.501-2.511,4.682-5.499,4.973h-0.328H183.54l-6.286,18.858h29.306c17.441,0,30.533-18.622,20.477-37.068
		C226.092,152.66,223.601,148.95,219.048,146.686z"/>
</g>
<path d="M283.465,283.464H0V0h283.465V283.464z M21.313,262.151h240.838V21.313H21.313V262.151z"/>
</svg>
